# xmcd CD database file
#
# Track frame offsets:
#	150
#	29095
#	51832
#	75165
#	96372
#	130235
#	154530
#	176150
#
# Disc length: 2471 seconds
#
# Revision: 0
# Processed by: cddbd v1.5PL3 Copyright (c) Steve Scherf et al.
# Submitted via: CDex 1.50
#
DISCID=6009a508
DTITLE=Bobby Hutcherson - Components
DYEAR=1965
DGENRE=Jazz
TTITLE0=Components
TTITLE1=Tranquillity
TTITLE2=Little B`s Poem
TTITLE3=West 22nd Street Theme
TTITLE4=Movement
TTITLE5=Juba Dance
TTITLE6=Air
TTITLE7=Pastoral
EXTD=YEAR: 1965
EXTT0=
EXTT1=
EXTT2=
EXTT3=
EXTT4=
EXTT5=
EXTT6=
EXTT7=
PLAYORDER=
